HIERARCHY
ROOT SpineBase
{
  OFFSET 0.000000 0.000000 0.000000
  CHANNELS 6 Xposition Yposition Zposition Zrotation Xrotation Yrotation
  JOINT SpineMid
  {
    OFFSET -0.000000 32.709295 0.000000
    CHANNELS 3 Zrotation Xrotation Yrotation
    JOINT SpineShoulder
    {
      OFFSET 0.062576 24.215559 -0.979377
      CHANNELS 3 Zrotation Xrotation Yrotation
      JOINT Neck
      {
        OFFSET 0.041717 8.001323 -0.682625
        CHANNELS 3 Zrotation Xrotation Yrotation
        JOINT Head
        {
          OFFSET 5.355966 12.133404 4.991511
          CHANNELS 3 Zrotation Xrotation Yrotation
          End Site
          {
            OFFSET 0 0 0
          }
        }
      }
      JOINT ShoulderLeft
      {
        OFFSET -11.113944 -2.625373 -12.048629
        CHANNELS 3 Zrotation Xrotation Yrotation
        JOINT ElbowLeft
        {
          OFFSET -7.391429 -25.034506 -7.134984
          CHANNELS 3 Zrotation Xrotation Yrotation
          JOINT WristLeft
          {
            OFFSET 1.935983 -21.359152 -5.345744
            CHANNELS 3 Zrotation Xrotation Yrotation
            JOINT HandLeft
            {
              OFFSET 1.780821 -8.664579 2.182886
              CHANNELS 3 Zrotation Xrotation Yrotation
              JOINT HandTipLeft
              {
                OFFSET 0.189848 -8.329470 -0.549479
                CHANNELS 3 Zrotation Xrotation Yrotation
                End Site
                {
                  OFFSET 0 0 0
                }
              }
              JOINT ThumbLeft
              {
                OFFSET 4.511962 2.202952 3.398475
                CHANNELS 3 Zrotation Xrotation Yrotation
                End Site
                {
                  OFFSET 0 0 0
                }
              }
            }
          }
        }
      }
      JOINT ShoulderRight
      {
        OFFSET 13.289955 -5.578939 9.207139
        CHANNELS 3 Zrotation Xrotation Yrotation
        JOINT ElbowRight
        {
          OFFSET 2.455245 -26.055237 2.891083
          CHANNELS 3 Zrotation Xrotation Yrotation
          JOINT WristRight
          {
            OFFSET 0.651646 -26.380383 -3.181254
            CHANNELS 3 Zrotation Xrotation Yrotation
            JOINT HandRight
            {
              OFFSET 0.057026 -8.204786 0.006123
              CHANNELS 3 Zrotation Xrotation Yrotation
              JOINT HandTipRight
              {
                OFFSET -1.278645 -7.320787 -0.927678
                CHANNELS 3 Zrotation Xrotation Yrotation
                End Site
                {
                  OFFSET 0 0 0
                }
              }
              JOINT ThumbRight
              {
                OFFSET -2.105783 -4.390136 -1.905549
                CHANNELS 3 Zrotation Xrotation Yrotation
                End Site
                {
                  OFFSET 0 0 0
                }
              }
            }
          }
        }
      }
    }
  }
  JOINT HipLeft
  {
    OFFSET -5.147270 1.629970 -7.963834
    CHANNELS 3 Zrotation Xrotation Yrotation
    JOINT KneeLeft
    {
      OFFSET -12.540818 -35.512219 -4.875297
      CHANNELS 3 Zrotation Xrotation Yrotation
      JOINT AnkleLeft
      {
        OFFSET -9.318071 -34.415170 3.609689
        CHANNELS 3 Zrotation Xrotation Yrotation
        JOINT FootLeft
        {
          OFFSET -1.531595 -7.207244 -8.117755
          CHANNELS 3 Zrotation Xrotation Yrotation
          End Site
          {
            OFFSET 0 0 0
          }
        }
      }
    }
  }
  JOINT HipRight
  {
    OFFSET 5.791436 -0.002298 0.669711
    CHANNELS 3 Zrotation Xrotation Yrotation
    JOINT KneeRight
    {
      OFFSET -6.455647 -37.002888 2.926675
      CHANNELS 3 Zrotation Xrotation Yrotation
      JOINT AnkleRight
      {
        OFFSET -6.752753 -36.216752 12.974060
        CHANNELS 3 Zrotation Xrotation Yrotation
        JOINT FootRight
        {
          OFFSET 2.118263 -8.273218 -3.601646
          CHANNELS 3 Zrotation Xrotation Yrotation
          End Site
          {
            OFFSET 0 0 0
          }
        }
      }
    }
  }
}
MOTION
Frames: 6
Frame Time: 0.033333
-36.026200 83.560568 345.134019 0.119153 -3.927688 -11.041140 0.496230 -0.168128 11.064637 -0.505931 0.294287 0.010331 21.019867 -19.938887 5.789546 0.000000 0.000000 0.000000 -3.517608 -31.343823 11.784159 -107.266689 52.727497 104.926092 -9.901068 22.285573 -28.084995 21.094338 -9.660808 21.186050 0.000000 0.000000 0.000000 0.000000 0.000000 0.000000 18.180591 -10.098391 1.661426 139.477774 19.600812 -121.970794 80.940464 79.256640 -19.564992 -76.758414 11.275751 178.138222 0.000000 0.000000 0.000000 0.000000 0.000000 0.000000 5.913924 5.173375 9.555587 -3.244004 2.736025 0.507372 -3.215647 0.702469 -0.954876 0.000000 0.000000 0.000000 3.945436 0.367824 11.976625 -2.205221 4.251185 -0.400182 -5.856336 3.261794 2.035749 0.000000 0.000000 0.000000
-36.486572 83.734947 344.685286 -0.538205 -3.652678 -13.120082 0.459037 -0.083910 13.094237 -0.509026 0.161928 -0.021086 20.689448 -19.638977 5.845064 0.000000 0.000000 0.000000 -3.746536 -31.736844 11.878196 -78.326393 51.770011 71.975775 -5.733526 29.288292 -10.894407 19.541323 -21.861474 9.516695 0.000000 0.000000 0.000000 0.000000 0.000000 0.000000 16.788292 -9.614637 1.383646 139.534984 14.036790 -111.277593 68.652058 61.711208 -29.567332 -81.138879 -4.230367 -164.900634 0.000000 0.000000 0.000000 0.000000 0.000000 0.000000 6.639279 4.480900 11.919123 -2.819249 3.332923 0.321229 -3.120069 0.555098 -1.585624 0.000000 0.000000 0.000000 4.677837 0.866357 13.926687 -1.919235 3.257760 -0.085432 -5.839481 2.748638 1.298955 0.000000 0.000000 0.000000
-36.946851 83.910660 344.178816 -1.147603 -3.401294 -15.270115 0.445323 0.003256 15.202272 -0.406507 0.030982 -0.044783 20.144047 -19.213545 5.811691 0.000000 0.000000 0.000000 -4.388181 -30.300247 11.366981 -55.332160 44.273074 45.199744 1.514569 32.826250 -2.791272 18.451158 -24.782990 5.911416 0.000000 0.000000 0.000000 0.000000 0.000000 0.000000 15.975892 -8.532986 1.203561 139.768838 13.161719 -106.361834 80.556241 54.593699 -52.329549 -94.337676 -16.028020 -159.885134 0.000000 0.000000 0.000000 0.000000 0.000000 0.000000 7.391722 3.736266 14.408740 -2.438829 4.112063 0.052041 -2.966999 0.049463 -2.135449 0.000000 0.000000 0.000000 5.417428 1.355852 15.972577 -1.688409 2.412402 0.210185 -5.526052 2.407271 0.483636 0.000000 0.000000 0.000000
-37.424169 84.031375 343.620102 -1.590232 -3.224146 -17.454578 0.398740 0.113546 17.358526 -0.248590 -0.062967 -0.058622 18.880692 -18.383132 5.628617 0.000000 0.000000 0.000000 -5.522933 -26.909627 10.313728 -37.981909 31.221091 24.033243 -4.685533 30.521215 -6.054570 28.436532 -21.387363 11.153734 0.000000 0.000000 0.000000 0.000000 0.000000 0.000000 14.514906 -7.597578 0.971358 141.013538 10.609345 -100.137239 82.631953 48.040157 -58.982450 -97.296819 -20.170420 -160.809984 0.000000 0.000000 0.000000 0.000000 0.000000 0.000000 7.851021 3.260958 16.870173 -1.832583 4.421602 -0.080467 -3.064700 0.111127 -2.676388 0.000000 0.000000 0.000000 6.007777 1.860186 18.076109 -1.556767 1.728049 0.460110 -4.670789 2.194327 -0.466789 0.000000 0.000000 0.000000
-37.955934 84.094643 342.940466 -1.905683 -3.031293 -19.524721 0.333420 0.198659 19.410986 -0.161632 -0.104484 -0.070975 17.497849 -17.388231 5.358457 0.000000 0.000000 0.000000 -6.383641 -24.107860 9.506739 -28.358674 18.797072 11.800227 -4.981472 26.141322 -7.717650 24.899045 -13.869683 10.219748 0.000000 0.000000 0.000000 0.000000 0.000000 0.000000 13.111986 -7.596939 0.790762 143.548401 7.590151 -96.802858 77.752469 43.286578 -59.776873 -90.979233 -24.154923 -162.934552 0.000000 0.000000 0.000000 0.000000 0.000000 0.000000 8.149005 2.926107 19.157746 -1.149582 4.326846 -0.083911 -3.217867 0.035557 -3.198260 0.000000 0.000000 0.000000 6.565888 2.235040 20.105362 -1.479235 1.147516 0.695971 -3.479522 2.070574 -1.571250 0.000000 0.000000 0.000000
-38.439586 84.112389 342.264130 -2.087033 -2.844823 -21.172802 0.202004 0.243457 21.050329 -0.109456 -0.112535 -0.081938 16.482579 -16.534757 5.084111 0.000000 0.000000 0.000000 -4.446942 -23.127591 9.001468 -26.732836 10.899081 7.382328 -3.285464 23.109246 -8.795670 19.721415 -10.148307 9.213847 0.000000 0.000000 0.000000 0.000000 0.000000 0.000000 13.204722 -9.092764 0.842914 145.922946 5.486329 -100.397619 69.008981 44.486611 -53.589347 -77.088283 -23.729092 -167.555557 0.000000 0.000000 0.000000 0.000000 0.000000 0.000000 8.289439 2.704604 20.955235 -0.558531 3.963924 0.006080 -3.291534 -0.231651 -3.663124 0.000000 0.000000 0.000000 7.096012 2.434440 21.756312 -1.570608 0.814922 0.842832 -4.309127 -3.047856 -2.994793 0.000000 0.000000 0.000000
